<?xml version="1.0" encoding="UTF-8" standalone="no"?>
<!DOCTYPE svg PUBLIC "-//W3C//DTD SVG 1.1//EN" "http://www.w3.org/Graphics/SVG/1.1/DTD/svg11.dtd">
<svg width="100%" height="100%" viewBox="0 0 127 118" version="1.1" xmlns="http://www.w3.org/2000/svg" xmlns:xlink="http://www.w3.org/1999/xlink" xml:space="preserve" xmlns:serif="http://www.serif.com/" style="fill-rule:evenodd;clip-rule:evenodd;stroke-linejoin:round;stroke-miterlimit:2;">
    <path d="M109.5,25.7C108.9,23 106.6,13.6 103,10L102.7,9.7C98.8,5.8 94.4,1.4 83.5,0.4C82.7,0.3 81.9,0.3 81.1,0.3C71.1,0.3 65.5,6.2 61.4,12C59.3,14.9 57.9,19 56.4,23.4C54.9,27.7 53.4,32.2 51.1,35.2C46.4,41.6 37.9,42.8 33.2,43L32.3,43C26.6,43 19.6,41.1 13.7,37.9C8.7,35.2 3.4,28.7 3.3,28.6L1,25.9L0.6,29.4C0.6,29.9 -0.6,40.5 0,48.1C0.9,59.5 6.8,71.6 15.2,79.7C25.3,89.3 39.1,94 57.6,94C85.5,94 98,73.9 102.7,66.3C107.8,58.1 108.9,48.3 109.1,45.4L126.6,34.3L109.5,25.7Z" style="fill-rule:nonzero;"/>
    <path d="M89.6,15.1C84.7,15.1 80.7,19.1 80.7,24C80.7,28.9 84.7,32.9 89.6,32.9C94.5,32.9 98.5,28.9 98.5,24C98.5,19.1 94.5,15.1 89.6,15.1Z" style="fill:white;fill-rule:nonzero;"/>
</svg>
